<?xml version="1.0" encoding="UTF-8"?>
<svg xmlns="http://www.w3.org/2000/svg" xmlns:xlink="http://www.w3.org/1999/xlink" width="193pt" height="193pt" viewBox="0 0 193 193" version="1.1">
<g id="surface1">
<path style=" stroke:none;fill-rule:evenodd;fill:rgb(100%,100%,100%);fill-opacity:1;" d="M 0 0.242188 L 192.757813 0.242188 L 192.757813 193 L 0 193 L 0 0.242188 "/>
<path style=" stroke:none;fill-rule:nonzero;fill:rgb(13.699341%,12.199402%,12.5%);fill-opacity:1;" d="M 23.800781 96.808594 L 31.664063 70.335938 L 39.347656 96.808594 Z M 29.503906 55.15625 L 9.898438 117.117188 L 17.84375 117.117188 L 22.246094 103.632813 L 41.074219 103.632813 L 45.480469 117.117188 L 64.566406 117.117188 L 45.828125 55.15625 Z M 146.167969 111.21875 C 146.167969 111.21875 146 115.4375 141.769531 115.4375 C 137.535156 115.4375 137.621094 110.714844 137.621094 110.714844 L 137.621094 93.683594 C 137.621094 93.683594 137.363281 88.371094 141.679688 88.371094 C 141.679688 88.371094 146.167969 87.613281 146.167969 93.941406 C 146.167969 101.273438 146.167969 111.21875 146.167969 111.21875 Z M 141.253906 85.59375 C 141.253906 85.59375 127.171875 83.90625 127.171875 102.203125 C 127.171875 119.066406 141.851563 117.710938 141.851563 117.710938 C 141.851563 117.710938 156.273438 119.316406 156.273438 102.027344 C 156.273438 84.160156 141.253906 85.59375 141.253906 85.59375 Z M 111.027344 104.222656 L 115.949219 104.222656 L 115.949219 111.976563 C 115.949219 111.976563 115.6875 115.351563 112.496094 115.351563 C 110.988281 115.351563 109.433594 114.757813 108.566406 112.417969 C 107.84375 110.695313 107.394531 105.1875 107.394531 102.371094 C 107.136719 93.601563 109.214844 90.816406 109.214844 90.816406 C 109.214844 90.816406 110.335938 88.457031 114.734375 89.050781 C 119.488281 90.058594 119.140625 96.722656 119.140625 96.722656 L 124.148438 94.699219 C 124.148438 94.699219 121.816406 83.652344 110.765625 85.757813 C 99.710938 87.867188 97.640625 97.140625 97.640625 102.960938 C 97.640625 108.777344 101.953125 116.621094 109.558594 117.625 C 117.152344 118.640625 120.953125 115.519531 120.953125 115.519531 L 122.25 117.796875 L 124.925781 117.796875 L 124.925781 100.34375 L 111.027344 100.34375 Z M 83.996094 99.753906 C 83.996094 99.753906 80.886719 99.503906 79.589844 99.503906 L 79.675781 89.382813 C 79.675781 89.382813 86.84375 88.039063 86.84375 94.699219 C 86.84375 99.25 83.996094 99.753906 83.996094 99.753906 Z M 95.054688 109.789063 C 95.054688 103.125 89.863281 101.777344 89.863281 101.777344 C 89.863281 101.777344 95.566406 100.515625 96.171875 94.101563 C 96.777344 86.773438 87.703125 85.507813 87.703125 85.507813 L 70.003906 85.507813 L 70.003906 117.710938 L 79.589844 117.710938 L 79.589844 102.371094 C 86.066406 101.273438 86.066406 107.34375 86.066406 107.34375 C 86.066406 107.34375 85.808594 108.605469 85.808594 111.726563 C 85.808594 114.851563 87.273438 117.710938 87.273438 117.710938 L 97.207031 117.710938 C 97.207031 117.710938 95.652344 117.460938 95.054688 109.789063 Z M 173.460938 99.417969 L 182.355469 85.59375 L 177.433594 85.59375 L 171.734375 95.542969 L 165.511719 85.59375 L 155.066406 85.59375 L 165.34375 102.871094 L 155.761719 117.710938 L 160.25 117.710938 L 167.328125 106.585938 L 173.636719 117.625 L 184.253906 117.625 L 173.460938 99.417969 "/>
<path style=" stroke:none;fill-rule:nonzero;fill:rgb(13.699341%,12.199402%,12.5%);fill-opacity:1;" d="M 8.503906 134.4375 C 8.917969 134.40625 9.199219 134.335938 9.355469 134.226563 C 9.59375 134.066406 9.796875 133.726563 9.945313 133.210938 L 12.109375 125.847656 C 12.175781 125.609375 12.234375 125.40625 12.273438 125.246094 C 12.308594 125.085938 12.324219 124.949219 12.324219 124.835938 C 12.324219 124.578125 12.222656 124.394531 12.011719 124.292969 C 11.800781 124.191406 11.445313 124.132813 10.945313 124.121094 L 10.945313 123.851563 L 19.71875 123.851563 L 19.171875 126.386719 L 18.808594 126.355469 C 18.824219 126.191406 18.835938 126.039063 18.84375 125.886719 C 18.851563 125.738281 18.851563 125.679688 18.851563 125.71875 C 18.867188 125.175781 18.660156 124.816406 18.238281 124.648438 C 17.816406 124.480469 16.949219 124.386719 15.628906 124.386719 C 15.027344 124.386719 14.652344 124.414063 14.496094 124.472656 C 14.339844 124.523438 14.234375 124.648438 14.171875 124.828125 L 13.015625 128.707031 C 14.570313 128.65625 15.503906 128.570313 15.820313 128.425781 C 16.136719 128.292969 16.472656 127.847656 16.828125 127.089844 L 17.160156 127.160156 L 15.949219 131.007813 L 15.605469 130.9375 C 15.664063 130.613281 15.699219 130.417969 15.710938 130.34375 C 15.71875 130.269531 15.730469 130.195313 15.730469 130.109375 C 15.730469 129.757813 15.59375 129.527344 15.332031 129.417969 C 15.054688 129.316406 14.570313 129.265625 13.859375 129.265625 L 12.851563 129.265625 L 11.765625 132.976563 C 11.730469 133.089844 11.703125 133.199219 11.683594 133.289063 C 11.664063 133.390625 11.652344 133.492188 11.652344 133.59375 C 11.652344 133.769531 11.703125 133.898438 11.800781 133.988281 C 11.976563 134.136719 12.332031 134.214844 12.851563 134.214844 C 14.429688 134.214844 15.558594 134.054688 16.242188 133.730469 C 16.921875 133.414063 17.597656 132.792969 18.273438 131.878906 L 18.554688 132.015625 L 17.457031 134.707031 L 8.503906 134.707031 L 8.503906 134.4375 "/>
<path style=" stroke:none;fill-rule:nonzero;fill:rgb(13.699341%,12.199402%,12.5%);fill-opacity:1;" d="M 27.363281 127.535156 C 27.640625 127.71875 27.777344 128.011719 27.777344 128.417969 C 27.777344 128.605469 27.730469 128.859375 27.636719 129.1875 C 27.542969 129.519531 27.371094 130.042969 27.125 130.769531 C 27.761719 129.847656 28.308594 129.144531 28.765625 128.664063 C 29.597656 127.789063 30.335938 127.355469 30.972656 127.355469 C 31.242188 127.355469 31.488281 127.441406 31.710938 127.617188 C 31.9375 127.789063 32.046875 128.070313 32.046875 128.453125 C 32.046875 128.570313 31.996094 128.859375 31.886719 129.324219 L 30.617188 133.746094 C 30.59375 133.820313 30.605469 133.898438 30.648438 133.96875 C 30.683594 134.039063 30.761719 134.078125 30.871094 134.078125 C 30.972656 134.078125 31.0625 134.054688 31.140625 134.003906 C 31.214844 133.953125 31.3125 133.875 31.441406 133.761719 C 31.550781 133.652344 31.644531 133.558594 31.714844 133.472656 C 31.789063 133.398438 31.996094 133.160156 32.332031 132.769531 L 32.597656 132.960938 L 32.515625 133.078125 C 32.101563 133.628906 31.679688 134.066406 31.265625 134.398438 C 30.84375 134.722656 30.433594 134.886719 30.023438 134.886719 C 29.839844 134.886719 29.683594 134.84375 29.558594 134.757813 C 29.363281 134.617188 29.265625 134.382813 29.265625 134.054688 C 29.265625 133.96875 29.273438 133.886719 29.289063 133.792969 C 29.304688 133.699219 29.328125 133.59375 29.351563 133.484375 L 30.59375 128.929688 C 30.609375 128.867188 30.625 128.8125 30.632813 128.765625 C 30.640625 128.726563 30.648438 128.6875 30.648438 128.644531 C 30.648438 128.511719 30.609375 128.414063 30.539063 128.339844 C 30.46875 128.269531 30.378906 128.230469 30.269531 128.230469 C 29.886719 128.230469 29.433594 128.507813 28.921875 129.054688 C 28.410156 129.597656 27.96875 130.15625 27.585938 130.722656 C 27.242188 131.296875 27 131.777344 26.855469 132.164063 C 26.71875 132.546875 26.460938 133.398438 26.089844 134.707031 L 24.753906 134.707031 L 26.390625 128.929688 C 26.398438 128.886719 26.410156 128.832031 26.421875 128.789063 C 26.425781 128.742188 26.433594 128.695313 26.433594 128.652344 C 26.433594 128.515625 26.402344 128.414063 26.339844 128.34375 C 26.285156 128.269531 26.183594 128.230469 26.042969 128.230469 C 25.6875 128.230469 25.234375 128.515625 24.707031 129.082031 C 24.179688 129.65625 23.742188 130.1875 23.402344 130.679688 C 23.070313 131.164063 22.753906 131.808594 22.441406 132.605469 C 22.261719 133.09375 22.019531 133.792969 21.714844 134.707031 L 20.390625 134.707031 L 22.070313 128.929688 C 22.082031 128.875 22.097656 128.816406 22.113281 128.765625 C 22.121094 128.710938 22.125 128.652344 22.125 128.59375 C 22.125 128.378906 22.050781 128.25 21.898438 128.207031 C 21.738281 128.164063 21.441406 128.152344 21 128.171875 L 21 127.886719 C 21.582031 127.808594 22.519531 127.628906 23.816406 127.355469 L 23.886719 127.414063 L 22.875 130.769531 C 23.515625 129.878906 24.121094 129.136719 24.6875 128.542969 C 25.464844 127.753906 26.15625 127.355469 26.753906 127.355469 C 26.980469 127.355469 27.1875 127.414063 27.363281 127.535156 "/>
<path style=" stroke:none;fill-rule:nonzero;fill:rgb(13.699341%,12.199402%,12.5%);fill-opacity:1;" d="M 32.453125 137.859375 C 32.800781 137.859375 33.058594 137.796875 33.238281 137.679688 C 33.410156 137.558594 33.539063 137.347656 33.621094 137.058594 L 35.804688 129.132813 C 35.863281 128.9375 35.902344 128.796875 35.914063 128.710938 C 35.925781 128.621094 35.9375 128.554688 35.9375 128.507813 C 35.9375 128.328125 35.863281 128.195313 35.726563 128.109375 C 35.582031 128.019531 35.378906 127.980469 35.113281 127.980469 C 35.050781 127.980469 34.996094 127.980469 34.945313 127.984375 C 34.894531 127.988281 34.839844 127.992188 34.78125 128.003906 L 34.761719 127.726563 L 37.507813 127.347656 C 37.539063 127.335938 37.5625 127.359375 37.582031 127.402344 C 37.5625 127.476563 37.550781 127.535156 37.539063 127.570313 L 37.070313 129.15625 C 37.460938 128.667969 37.816406 128.296875 38.148438 128.050781 C 38.742188 127.582031 39.355469 127.347656 39.988281 127.347656 C 40.640625 127.347656 41.148438 127.527344 41.523438 127.886719 C 41.890625 128.242188 42.074219 128.796875 42.074219 129.539063 C 42.074219 130.816406 41.503906 132.023438 40.363281 133.179688 C 39.230469 134.324219 38.054688 134.894531 36.839844 134.894531 C 36.597656 134.894531 36.394531 134.871094 36.230469 134.828125 C 36.058594 134.785156 35.859375 134.710938 35.617188 134.613281 L 35.5 135.085938 C 35.355469 135.644531 35.257813 136.042969 35.203125 136.28125 C 35.054688 136.90625 34.976563 137.253906 34.976563 137.339844 C 34.976563 137.5625 35.054688 137.707031 35.203125 137.761719 C 35.355469 137.824219 35.648438 137.859375 36.085938 137.886719 L 36.085938 138.085938 L 32.453125 138.085938 Z M 40.355469 128.667969 C 40.175781 128.273438 39.84375 128.078125 39.355469 128.078125 C 38.9375 128.078125 38.480469 128.261719 37.980469 128.640625 C 37.488281 129.015625 37.101563 129.617188 36.8125 130.457031 C 36.582031 131.136719 36.363281 131.851563 36.167969 132.597656 C 35.96875 133.34375 35.871094 133.785156 35.871094 133.910156 C 35.871094 134.121094 35.960938 134.277344 36.136719 134.382813 C 36.316406 134.476563 36.535156 134.527344 36.789063 134.527344 C 37.792969 134.527344 38.6875 133.925781 39.457031 132.714844 C 40.148438 131.644531 40.492188 130.566406 40.492188 129.507813 C 40.492188 129.152344 40.445313 128.875 40.355469 128.667969 "/>
<path style=" stroke:none;fill-rule:nonzero;fill:rgb(13.699341%,12.199402%,12.5%);fill-opacity:1;" d="M 51.160156 128.066406 C 51.550781 128.550781 51.753906 129.125 51.753906 129.78125 C 51.753906 130.929688 51.214844 132.058594 50.144531 133.160156 C 49.035156 134.3125 47.851563 134.882813 46.59375 134.882813 C 45.804688 134.882813 45.167969 134.671875 44.691406 134.234375 C 44.21875 133.804688 43.976563 133.191406 43.976563 132.410156 C 43.976563 131.222656 44.511719 130.085938 45.578125 129.003906 C 46.667969 127.886719 47.84375 127.335938 49.121094 127.335938 C 50.082031 127.335938 50.761719 127.582031 51.160156 128.066406 Z M 45.828125 134.078125 C 46.058594 134.371094 46.414063 134.523438 46.871094 134.523438 C 47.808594 134.523438 48.636719 133.855469 49.363281 132.519531 C 49.972656 131.378906 50.28125 130.328125 50.28125 129.367188 C 50.28125 128.964844 50.230469 128.632813 50.121094 128.386719 C 49.921875 127.914063 49.558594 127.679688 49.027344 127.679688 C 48.144531 127.679688 47.324219 128.296875 46.550781 129.539063 C 45.828125 130.699219 45.464844 131.835938 45.464844 132.957031 C 45.464844 133.40625 45.585938 133.785156 45.828125 134.078125 "/>
<path style=" stroke:none;fill-rule:nonzero;fill:rgb(13.699341%,12.199402%,12.5%);fill-opacity:1;" d="M 63.949219 130.15625 C 63.691406 130.570313 63.324219 131.078125 62.851563 131.671875 C 62.367188 132.28125 61.875 132.894531 61.359375 133.484375 C 60.554688 134.429688 60.074219 134.902344 59.933594 134.902344 C 59.871094 134.902344 59.828125 134.875 59.8125 134.828125 C 59.792969 134.773438 59.773438 134.613281 59.746094 134.332031 L 59.238281 129.269531 L 55.664063 134.792969 L 55.597656 134.859375 L 55.515625 134.875 L 55.394531 134.855469 L 55.375 134.773438 L 55.277344 132.773438 C 55.253906 132.320313 55.21875 131.859375 55.175781 131.378906 C 55.136719 130.898438 55.089844 130.480469 55.054688 130.132813 C 54.925781 129.144531 54.804688 128.546875 54.667969 128.328125 C 54.53125 128.105469 54.285156 127.992188 53.925781 127.992188 C 53.859375 127.992188 53.785156 127.992188 53.71875 127.996094 C 53.648438 128.003906 53.578125 128.007813 53.503906 128.015625 L 53.503906 127.78125 C 53.738281 127.742188 53.960938 127.699219 54.175781 127.65625 C 54.390625 127.617188 54.628906 127.566406 54.890625 127.519531 L 55.699219 127.320313 C 55.890625 127.320313 56.09375 128.089844 56.292969 129.632813 C 56.402344 130.476563 56.5 131.441406 56.585938 132.519531 L 59.96875 127.472656 C 59.992188 127.429688 60.015625 127.394531 60.054688 127.367188 C 60.089844 127.335938 60.128906 127.320313 60.171875 127.320313 C 60.226563 127.320313 60.261719 127.335938 60.285156 127.367188 C 60.292969 127.398438 60.308594 127.445313 60.316406 127.519531 L 60.886719 133.390625 C 60.929688 133.339844 61.246094 132.957031 61.84375 132.238281 C 62.441406 131.519531 62.753906 131.136719 62.78125 131.101563 C 63.214844 130.515625 63.503906 130.054688 63.648438 129.738281 C 63.734375 129.539063 63.785156 129.332031 63.785156 129.136719 C 63.785156 129.0625 63.769531 128.992188 63.746094 128.917969 C 63.726563 128.851563 63.671875 128.785156 63.582031 128.710938 L 63.320313 128.472656 C 63.242188 128.402344 63.179688 128.320313 63.121094 128.242188 C 63.066406 128.152344 63.042969 128.058594 63.042969 127.945313 C 63.042969 127.808594 63.097656 127.671875 63.195313 127.53125 C 63.296875 127.390625 63.476563 127.320313 63.738281 127.320313 C 63.957031 127.320313 64.15625 127.398438 64.351563 127.554688 C 64.546875 127.71875 64.644531 127.980469 64.644531 128.351563 C 64.644531 128.804688 64.410156 129.402344 63.949219 130.15625 "/>
<path style=" stroke:none;fill-rule:nonzero;fill:rgb(13.699341%,12.199402%,12.5%);fill-opacity:1;" d="M 68.121094 129.0625 C 69.253906 127.9375 70.429688 127.375 71.640625 127.375 C 72.089844 127.375 72.445313 127.472656 72.714844 127.664063 C 72.972656 127.863281 73.105469 128.152344 73.105469 128.535156 C 73.105469 129.316406 72.625 129.984375 71.65625 130.539063 C 70.6875 131.097656 69.671875 131.4375 68.597656 131.558594 L 68.113281 131.617188 C 68.035156 131.835938 67.984375 132.015625 67.953125 132.152344 C 67.925781 132.28125 67.910156 132.445313 67.910156 132.644531 C 67.910156 133.128906 68.074219 133.496094 68.410156 133.761719 C 68.738281 134.027344 69.128906 134.160156 69.585938 134.160156 C 70.011719 134.160156 70.472656 134.027344 70.953125 133.753906 C 71.226563 133.59375 71.628906 133.3125 72.148438 132.910156 L 72.371094 133.09375 C 72.117188 133.402344 71.742188 133.722656 71.265625 134.046875 C 70.410156 134.625 69.546875 134.917969 68.691406 134.917969 C 68.082031 134.917969 67.542969 134.710938 67.089844 134.304688 C 66.628906 133.898438 66.398438 133.320313 66.398438 132.558594 C 66.398438 131.351563 66.976563 130.191406 68.121094 129.0625 Z M 70.910156 130.160156 C 71.59375 129.582031 71.941406 129.007813 71.941406 128.4375 C 71.941406 128.230469 71.894531 128.070313 71.789063 127.945313 C 71.683594 127.828125 71.535156 127.765625 71.332031 127.765625 C 70.957031 127.765625 70.59375 127.914063 70.234375 128.21875 C 69.871094 128.515625 69.550781 128.855469 69.261719 129.234375 C 68.960938 129.679688 68.722656 130.105469 68.539063 130.507813 C 68.445313 130.730469 68.339844 130.976563 68.230469 131.25 C 69.332031 131.101563 70.222656 130.738281 70.910156 130.160156 "/>
<path style=" stroke:none;fill-rule:nonzero;fill:rgb(13.699341%,12.199402%,12.5%);fill-opacity:1;" d="M 78.257813 127.367188 L 78.289063 127.464844 C 78.285156 127.523438 78.273438 127.5625 78.273438 127.589844 L 77.410156 130.730469 L 77.601563 130.382813 C 78.015625 129.617188 78.5 128.917969 79.050781 128.289063 C 79.605469 127.65625 80.132813 127.339844 80.632813 127.339844 C 80.902344 127.339844 81.109375 127.425781 81.253906 127.59375 C 81.402344 127.757813 81.472656 127.953125 81.472656 128.171875 C 81.472656 128.414063 81.402344 128.621094 81.253906 128.777344 C 81.109375 128.9375 80.910156 129.019531 80.652344 129.019531 C 80.472656 129.019531 80.335938 128.988281 80.242188 128.917969 C 80.152344 128.851563 80.082031 128.777344 80.03125 128.691406 L 79.929688 128.511719 L 79.847656 128.4375 C 79.8125 128.414063 79.773438 128.40625 79.726563 128.40625 C 79.507813 128.40625 79.179688 128.707031 78.765625 129.296875 C 78.339844 129.878906 77.957031 130.523438 77.625 131.214844 C 77.429688 131.628906 77.199219 132.183594 76.960938 132.867188 C 76.804688 133.300781 76.59375 133.910156 76.335938 134.710938 L 75.011719 134.710938 L 76.4375 129.820313 C 76.519531 129.539063 76.582031 129.289063 76.636719 129.0625 C 76.679688 128.839844 76.707031 128.65625 76.707031 128.519531 C 76.707031 128.359375 76.660156 128.230469 76.578125 128.148438 C 76.492188 128.058594 76.339844 128.015625 76.132813 128.015625 C 76.066406 128.015625 75.976563 128.023438 75.871094 128.03125 C 75.765625 128.050781 75.648438 128.058594 75.503906 128.074219 L 75.503906 127.808594 L 75.84375 127.742188 C 76.296875 127.652344 76.785156 127.5625 77.3125 127.464844 C 77.84375 127.367188 78.125 127.320313 78.15625 127.320313 C 78.207031 127.320313 78.242188 127.335938 78.257813 127.367188 "/>
<path style=" stroke:none;fill-rule:nonzero;fill:rgb(13.699341%,12.199402%,12.5%);fill-opacity:1;" d="M 88.269531 134.007813 C 88.273438 133.953125 88.285156 133.898438 88.300781 133.839844 L 89.917969 128.152344 L 88.613281 128.152344 C 88.613281 128.011719 88.621094 127.914063 88.644531 127.878906 C 88.667969 127.84375 88.726563 127.804688 88.816406 127.765625 C 89.398438 127.535156 89.84375 127.308594 90.164063 127.09375 C 90.480469 126.875 90.917969 126.457031 91.46875 125.84375 L 91.605469 125.683594 L 91.675781 125.636719 L 91.75 125.613281 C 91.808594 125.625 91.851563 125.636719 91.875 125.648438 L 91.90625 125.746094 L 91.902344 125.84375 L 91.410156 127.613281 L 92.808594 127.613281 L 92.710938 128.152344 L 91.242188 128.152344 L 89.695313 133.625 C 89.667969 133.722656 89.675781 133.816406 89.71875 133.90625 C 89.765625 133.996094 89.84375 134.039063 89.953125 134.039063 C 90.101563 134.039063 90.316406 133.898438 90.582031 133.617188 C 90.742188 133.46875 91.003906 133.160156 91.367188 132.714844 L 91.589844 132.839844 L 91.46875 133.007813 C 90.972656 133.707031 90.539063 134.191406 90.164063 134.464844 C 89.785156 134.738281 89.429688 134.875 89.089844 134.875 C 88.800781 134.875 88.589844 134.800781 88.457031 134.65625 C 88.324219 134.511719 88.257813 134.34375 88.257813 134.160156 C 88.257813 134.121094 88.261719 134.066406 88.269531 134.007813 "/>
<path style=" stroke:none;fill-rule:nonzero;fill:rgb(13.699341%,12.199402%,12.5%);fill-opacity:1;" d="M 95.332031 123.800781 C 95.691406 123.753906 95.992188 123.714844 96.21875 123.683594 C 96.441406 123.652344 96.644531 123.625 96.808594 123.597656 C 97.488281 123.472656 97.851563 123.402344 97.902344 123.394531 C 97.949219 123.382813 97.992188 123.378906 98.023438 123.378906 C 98.089844 123.410156 98.125 123.449219 98.125 123.5 L 96.105469 130.757813 C 96.824219 129.75 97.417969 129.015625 97.871094 128.546875 C 98.679688 127.746094 99.414063 127.339844 100.089844 127.339844 C 100.363281 127.339844 100.632813 127.425781 100.882813 127.59375 C 101.140625 127.757813 101.265625 128.050781 101.265625 128.480469 C 101.265625 128.585938 101.253906 128.714844 101.222656 128.886719 C 101.195313 129.042969 101.160156 129.183594 101.121094 129.308594 L 99.960938 133.199219 C 99.921875 133.3125 99.894531 133.414063 99.875 133.515625 C 99.847656 133.617188 99.835938 133.707031 99.835938 133.789063 C 99.835938 133.882813 99.859375 133.949219 99.90625 133.996094 C 99.953125 134.039063 100.015625 134.066406 100.105469 134.066406 C 100.285156 134.066406 100.492188 133.949219 100.734375 133.714844 C 100.882813 133.566406 101.160156 133.25 101.570313 132.753906 L 101.792969 132.949219 C 101.386719 133.511719 101.050781 133.925781 100.769531 134.1875 C 100.269531 134.644531 99.761719 134.875 99.261719 134.875 C 99.03125 134.875 98.84375 134.8125 98.683594 134.675781 C 98.527344 134.539063 98.449219 134.34375 98.449219 134.089844 C 98.449219 134.015625 98.457031 133.953125 98.464844 133.886719 C 98.472656 133.824219 98.492188 133.761719 98.515625 133.683594 L 99.835938 128.917969 C 99.847656 128.875 99.859375 128.828125 99.863281 128.785156 C 99.875 128.738281 99.882813 128.691406 99.882813 128.644531 C 99.882813 128.507813 99.835938 128.40625 99.753906 128.328125 C 99.660156 128.25 99.542969 128.214844 99.402344 128.214844 C 99.015625 128.214844 98.527344 128.507813 97.945313 129.082031 C 97.359375 129.664063 96.867188 130.261719 96.460938 130.871094 C 96.1875 131.296875 95.976563 131.699219 95.839844 132.082031 C 95.703125 132.460938 95.425781 133.332031 95.03125 134.695313 L 93.6875 134.695313 L 96.441406 124.839844 C 96.460938 124.773438 96.476563 124.707031 96.480469 124.660156 C 96.484375 124.613281 96.488281 124.570313 96.488281 124.523438 C 96.488281 124.292969 96.410156 124.15625 96.246094 124.109375 C 96.085938 124.0625 95.785156 124.046875 95.332031 124.070313 L 95.332031 123.800781 "/>
<path style=" stroke:none;fill-rule:nonzero;fill:rgb(13.699341%,12.199402%,12.5%);fill-opacity:1;" d="M 105.347656 129.0625 C 106.484375 127.9375 107.652344 127.375 108.871094 127.375 C 109.3125 127.375 109.667969 127.472656 109.929688 127.664063 C 110.199219 127.863281 110.332031 128.152344 110.332031 128.535156 C 110.332031 129.316406 109.847656 129.984375 108.878906 130.539063 C 107.910156 131.097656 106.898438 131.4375 105.828125 131.558594 L 105.335938 131.617188 C 105.261719 131.835938 105.210938 132.015625 105.179688 132.152344 C 105.148438 132.28125 105.140625 132.445313 105.140625 132.644531 C 105.140625 133.128906 105.304688 133.496094 105.636719 133.761719 C 105.960938 134.027344 106.355469 134.160156 106.808594 134.160156 C 107.238281 134.160156 107.695313 134.027344 108.179688 133.753906 C 108.453125 133.59375 108.851563 133.3125 109.371094 132.910156 L 109.59375 133.09375 C 109.339844 133.402344 108.96875 133.722656 108.488281 134.046875 C 107.632813 134.625 106.773438 134.917969 105.914063 134.917969 C 105.304688 134.917969 104.769531 134.710938 104.308594 134.304688 C 103.851563 133.898438 103.625 133.320313 103.625 132.558594 C 103.625 131.351563 104.199219 130.191406 105.347656 129.0625 Z M 108.136719 130.160156 C 108.828125 129.582031 109.164063 129.007813 109.164063 128.4375 C 109.164063 128.230469 109.117188 128.070313 109.011719 127.945313 C 108.910156 127.828125 108.757813 127.765625 108.558594 127.765625 C 108.1875 127.765625 107.816406 127.914063 107.460938 128.21875 C 107.101563 128.515625 106.773438 128.855469 106.484375 129.234375 C 106.1875 129.679688 105.945313 130.105469 105.765625 130.507813 C 105.671875 130.730469 105.570313 130.976563 105.457031 131.25 C 106.554688 131.101563 107.445313 130.738281 108.136719 130.160156 "/>
<path style=" stroke:none;fill-rule:nonzero;fill:rgb(13.699341%,12.199402%,12.5%);fill-opacity:1;" d="M 116.929688 134.4375 C 117.335938 134.40625 117.625 134.335938 117.777344 134.226563 C 118.015625 134.066406 118.210938 133.726563 118.371094 133.210938 L 120.53125 125.847656 C 120.585938 125.664063 120.625 125.523438 120.65625 125.417969 C 120.714844 125.171875 120.742188 124.984375 120.742188 124.863281 C 120.742188 124.585938 120.644531 124.394531 120.453125 124.292969 C 120.257813 124.191406 119.898438 124.132813 119.371094 124.121094 L 119.371094 123.851563 L 123.925781 123.851563 C 124.703125 123.851563 125.382813 123.949219 125.980469 124.136719 C 126.964844 124.53125 127.464844 125.238281 127.464844 126.265625 C 127.464844 127.117188 127.0625 127.773438 126.25 128.25 C 125.808594 128.507813 125.195313 128.710938 124.410156 128.875 C 125.015625 129.089844 125.472656 129.328125 125.777344 129.589844 C 126.324219 130.054688 126.59375 130.699219 126.59375 131.503906 C 126.59375 132.417969 126.164063 133.175781 125.3125 133.789063 C 124.453125 134.402344 123.285156 134.707031 121.800781 134.707031 L 116.929688 134.707031 Z M 123.867188 133.324219 C 124.402344 132.75 124.679688 132.050781 124.679688 131.25 C 124.679688 130.34375 124.355469 129.757813 123.726563 129.484375 C 123.324219 129.316406 122.515625 129.21875 121.285156 129.210938 L 120.1875 132.976563 C 120.160156 133.074219 120.136719 133.160156 120.121094 133.25 C 120.101563 133.339844 120.089844 133.425781 120.089844 133.496094 C 120.089844 133.792969 120.238281 133.996094 120.53125 134.089844 C 120.699219 134.148438 120.960938 134.175781 121.320313 134.175781 C 122.472656 134.175781 123.324219 133.890625 123.867188 133.324219 Z M 122.226563 128.667969 C 123.140625 128.667969 123.855469 128.550781 124.363281 128.316406 C 125.238281 127.902344 125.671875 127.144531 125.671875 126.054688 C 125.671875 125.429688 125.488281 124.992188 125.117188 124.730469 C 124.746094 124.480469 124.261719 124.351563 123.65625 124.351563 C 123.277344 124.351563 123.015625 124.378906 122.875 124.453125 C 122.742188 124.519531 122.648438 124.636719 122.601563 124.8125 L 121.453125 128.65625 L 122.226563 128.667969 "/>
<path style=" stroke:none;fill-rule:nonzero;fill:rgb(13.699341%,12.199402%,12.5%);fill-opacity:1;" d="M 135.136719 127.671875 C 135.269531 127.789063 135.371094 127.945313 135.449219 128.140625 L 135.484375 128.257813 L 135.679688 127.640625 C 135.703125 127.566406 135.71875 127.523438 135.738281 127.496094 C 135.757813 127.46875 135.796875 127.457031 135.859375 127.445313 L 136.828125 127.347656 C 136.886719 127.347656 136.917969 127.355469 136.925781 127.375 C 136.929688 127.394531 136.929688 127.425781 136.917969 127.472656 C 136.894531 127.542969 136.878906 127.59375 136.871094 127.640625 C 136.859375 127.679688 136.839844 127.742188 136.8125 127.816406 L 136.019531 130.722656 C 135.851563 131.359375 135.703125 131.90625 135.585938 132.363281 C 135.371094 133.199219 135.261719 133.675781 135.261719 133.792969 C 135.261719 133.875 135.285156 133.925781 135.328125 133.960938 C 135.371094 134 135.425781 134.015625 135.484375 134.015625 C 135.539063 134.015625 135.597656 134 135.65625 133.96875 C 135.71875 133.933594 135.789063 133.886719 135.878906 133.820313 L 136.019531 133.707031 C 136.066406 133.667969 136.121094 133.625 136.179688 133.574219 C 136.234375 133.523438 136.300781 133.460938 136.382813 133.382813 L 136.917969 132.867188 L 137.128906 133.035156 C 136.523438 133.753906 136.046875 134.238281 135.6875 134.5 C 135.328125 134.757813 134.980469 134.882813 134.652344 134.882813 C 134.441406 134.882813 134.277344 134.816406 134.15625 134.675781 C 134.039063 134.53125 133.980469 134.363281 133.980469 134.144531 C 133.980469 133.953125 134.019531 133.671875 134.097656 133.304688 C 134.175781 132.941406 134.25 132.632813 134.328125 132.378906 C 134.21875 132.542969 134.050781 132.78125 133.808594 133.09375 C 133.5625 133.402344 133.261719 133.707031 132.90625 134 C 132.484375 134.351563 132.085938 134.597656 131.703125 134.746094 C 131.402344 134.84375 131.113281 134.894531 130.835938 134.894531 C 130.375 134.894531 129.949219 134.714844 129.578125 134.351563 C 129.195313 133.996094 129.003906 133.484375 129.003906 132.820313 C 129.003906 131.683594 129.542969 130.496094 130.621094 129.265625 C 131.738281 127.980469 132.886719 127.335938 134.085938 127.335938 C 134.542969 127.335938 134.886719 127.445313 135.136719 127.671875 Z M 134.878906 127.980469 C 134.6875 127.792969 134.457031 127.699219 134.1875 127.699219 C 133.253906 127.699219 132.382813 128.378906 131.578125 129.734375 C 130.871094 130.925781 130.519531 131.957031 130.519531 132.820313 C 130.519531 133.246094 130.621094 133.566406 130.820313 133.761719 C 131.015625 133.960938 131.257813 134.058594 131.554688 134.058594 C 132.417969 134.058594 133.257813 133.398438 134.0625 132.082031 C 134.792969 130.886719 135.164063 129.804688 135.164063 128.839844 C 135.164063 128.449219 135.066406 128.160156 134.878906 127.980469 "/>
<path style=" stroke:none;fill-rule:nonzero;fill:rgb(13.699341%,12.199402%,12.5%);fill-opacity:1;" d="M 142.125 127.367188 L 142.160156 127.464844 C 142.152344 127.523438 142.148438 127.5625 142.140625 127.589844 L 141.285156 130.730469 L 141.46875 130.382813 C 141.882813 129.617188 142.367188 128.917969 142.921875 128.289063 C 143.472656 127.65625 144.003906 127.339844 144.496094 127.339844 C 144.773438 127.339844 144.976563 127.425781 145.128906 127.59375 C 145.277344 127.757813 145.347656 127.953125 145.347656 128.171875 C 145.347656 128.414063 145.277344 128.621094 145.128906 128.777344 C 144.976563 128.9375 144.777344 129.019531 144.519531 129.019531 C 144.34375 129.019531 144.207031 128.988281 144.113281 128.917969 C 144.019531 128.851563 143.949219 128.777344 143.898438 128.691406 L 143.796875 128.511719 L 143.710938 128.4375 C 143.683594 128.414063 143.644531 128.40625 143.597656 128.40625 C 143.375 128.40625 143.050781 128.707031 142.628906 129.296875 C 142.207031 129.878906 141.828125 130.523438 141.5 131.214844 C 141.292969 131.628906 141.066406 132.183594 140.820313 132.867188 C 140.671875 133.300781 140.457031 133.910156 140.203125 134.710938 L 138.878906 134.710938 L 140.304688 129.820313 C 140.390625 129.539063 140.449219 129.289063 140.503906 129.0625 C 140.550781 128.839844 140.582031 128.65625 140.582031 128.519531 C 140.582031 128.359375 140.527344 128.230469 140.445313 128.148438 C 140.359375 128.058594 140.207031 128.015625 139.996094 128.015625 C 139.929688 128.015625 139.84375 128.023438 139.734375 128.03125 C 139.636719 128.050781 139.507813 128.058594 139.371094 128.074219 L 139.371094 127.808594 L 139.710938 127.742188 C 140.15625 127.652344 140.652344 127.5625 141.179688 127.464844 C 141.714844 127.367188 141.992188 127.320313 142.019531 127.320313 C 142.074219 127.320313 142.109375 127.335938 142.125 127.367188 "/>
<path style=" stroke:none;fill-rule:nonzero;fill:rgb(13.699341%,12.199402%,12.5%);fill-opacity:1;" d="M 152.554688 127.824219 C 152.859375 128.121094 153.019531 128.414063 153.019531 128.691406 C 153.019531 128.945313 152.9375 129.144531 152.777344 129.285156 C 152.617188 129.425781 152.429688 129.496094 152.207031 129.496094 C 151.996094 129.496094 151.820313 129.433594 151.671875 129.308594 C 151.53125 129.183594 151.460938 129.03125 151.460938 128.847656 C 151.460938 128.707031 151.511719 128.554688 151.605469 128.390625 C 151.699219 128.230469 151.742188 128.121094 151.742188 128.074219 C 151.742188 127.976563 151.691406 127.898438 151.570313 127.828125 C 151.453125 127.757813 151.265625 127.722656 151.003906 127.722656 C 150.078125 127.722656 149.273438 128.21875 148.597656 129.210938 C 147.914063 130.203125 147.578125 131.242188 147.578125 132.332031 C 147.578125 132.945313 147.714844 133.425781 147.988281 133.773438 C 148.265625 134.113281 148.679688 134.285156 149.230469 134.285156 C 149.671875 134.285156 150.097656 134.167969 150.515625 133.925781 C 150.933594 133.6875 151.320313 133.382813 151.660156 133.003906 L 151.726563 132.941406 L 151.976563 133.117188 C 151.578125 133.597656 151.1875 133.976563 150.808594 134.234375 C 150.152344 134.683594 149.425781 134.90625 148.621094 134.90625 C 147.847656 134.90625 147.226563 134.675781 146.753906 134.214844 C 146.273438 133.746094 146.035156 133.117188 146.035156 132.316406 C 146.035156 131.089844 146.5625 129.953125 147.632813 128.917969 C 148.679688 127.886719 149.816406 127.375 151.039063 127.375 C 151.738281 127.375 152.242188 127.527344 152.554688 127.824219 "/>
<path style=" stroke:none;fill-rule:nonzero;fill:rgb(13.699341%,12.199402%,12.5%);fill-opacity:1;" d="M 161.890625 128.066406 C 162.28125 128.550781 162.480469 129.125 162.480469 129.78125 C 162.480469 130.929688 161.945313 132.058594 160.871094 133.160156 C 159.765625 134.3125 158.582031 134.882813 157.324219 134.882813 C 156.53125 134.882813 155.894531 134.671875 155.421875 134.234375 C 154.945313 133.804688 154.707031 133.191406 154.707031 132.410156 C 154.707031 131.222656 155.242188 130.085938 156.308594 129.003906 C 157.398438 127.886719 158.578125 127.335938 159.847656 127.335938 C 160.808594 127.335938 161.496094 127.582031 161.890625 128.066406 Z M 156.554688 134.078125 C 156.789063 134.371094 157.136719 134.523438 157.597656 134.523438 C 158.53125 134.523438 159.363281 133.855469 160.085938 132.519531 C 160.703125 131.378906 161.007813 130.328125 161.007813 129.367188 C 161.007813 128.964844 160.960938 128.632813 160.855469 128.386719 C 160.652344 127.914063 160.289063 127.679688 159.75 127.679688 C 158.875 127.679688 158.050781 128.296875 157.285156 129.539063 C 156.558594 130.699219 156.195313 131.835938 156.195313 132.957031 C 156.195313 133.40625 156.316406 133.785156 156.554688 134.078125 "/>
<path style=" stroke:none;fill-rule:nonzero;fill:rgb(13.699341%,12.199402%,12.5%);fill-opacity:1;" d="M 170.21875 127.640625 C 170.328125 127.757813 170.414063 127.960938 170.480469 128.25 L 171.460938 124.917969 C 171.488281 124.824219 171.507813 124.746094 171.515625 124.671875 C 171.527344 124.597656 171.527344 124.53125 171.527344 124.480469 C 171.527344 124.265625 171.488281 124.136719 171.402344 124.085938 C 171.316406 124.023438 171.203125 123.996094 171.042969 123.996094 C 170.945313 123.996094 170.859375 124 170.777344 124.011719 C 170.6875 124.011719 170.585938 124.023438 170.441406 124.03125 L 170.441406 123.765625 C 171.09375 123.683594 171.988281 123.539063 173.140625 123.339844 L 173.210938 123.421875 L 173.199219 123.511719 L 171.546875 129.351563 L 170.417969 133.21875 C 170.394531 133.308594 170.378906 133.390625 170.359375 133.460938 C 170.34375 133.535156 170.335938 133.597656 170.335938 133.65625 C 170.335938 133.804688 170.378906 133.898438 170.457031 133.945313 C 170.53125 133.988281 170.601563 134.007813 170.660156 134.007813 C 170.824219 134.007813 171.058594 133.871094 171.359375 133.59375 C 171.542969 133.425781 171.789063 133.164063 172.097656 132.820313 L 172.292969 132.996094 L 172.171875 133.160156 C 171.960938 133.460938 171.6875 133.765625 171.359375 134.074219 C 170.765625 134.621094 170.234375 134.894531 169.761719 134.894531 C 169.609375 134.894531 169.46875 134.859375 169.34375 134.800781 C 169.105469 134.671875 168.988281 134.433594 168.988281 134.097656 C 168.988281 133.988281 169.007813 133.804688 169.042969 133.554688 C 169.078125 133.304688 169.121094 133.035156 169.195313 132.742188 C 168.761719 133.367188 168.277344 133.886719 167.761719 134.285156 C 167.238281 134.6875 166.671875 134.886719 166.058594 134.886719 C 165.5625 134.886719 165.121094 134.71875 164.75 134.382813 C 164.378906 134.046875 164.191406 133.53125 164.191406 132.832031 C 164.191406 131.652344 164.769531 130.4375 165.910156 129.191406 C 167.058594 127.953125 168.167969 127.332031 169.257813 127.332031 C 169.703125 127.332031 170.03125 127.429688 170.21875 127.640625 Z M 165.964844 133.683594 C 166.128906 133.925781 166.398438 134.054688 166.785156 134.054688 C 167.605469 134.054688 168.394531 133.425781 169.148438 132.183594 C 169.867188 131.011719 170.21875 129.898438 170.21875 128.855469 C 170.21875 128.53125 170.164063 128.25 170.046875 128.035156 C 169.929688 127.824219 169.699219 127.71875 169.351563 127.71875 C 168.476563 127.71875 167.636719 128.378906 166.820313 129.710938 C 166.089844 130.902344 165.726563 131.941406 165.726563 132.820313 C 165.726563 133.148438 165.804688 133.433594 165.964844 133.683594 "/>
<path style=" stroke:none;fill-rule:nonzero;fill:rgb(13.699341%,12.199402%,12.5%);fill-opacity:1;" d="M 175.90625 129.0625 C 177.042969 127.9375 178.214844 127.375 179.421875 127.375 C 179.871094 127.375 180.230469 127.472656 180.492188 127.664063 C 180.753906 127.863281 180.886719 128.152344 180.886719 128.535156 C 180.886719 129.316406 180.40625 129.984375 179.4375 130.539063 C 178.46875 131.097656 177.453125 131.4375 176.386719 131.558594 L 175.894531 131.617188 C 175.820313 131.835938 175.769531 132.015625 175.738281 132.152344 C 175.710938 132.28125 175.691406 132.445313 175.691406 132.644531 C 175.691406 133.128906 175.863281 133.496094 176.191406 133.761719 C 176.519531 134.027344 176.910156 134.160156 177.371094 134.160156 C 177.796875 134.160156 178.25 134.027344 178.734375 133.753906 C 179.007813 133.59375 179.410156 133.3125 179.929688 132.910156 L 180.160156 133.09375 C 179.898438 133.402344 179.527344 133.722656 179.042969 134.046875 C 178.191406 134.625 177.335938 134.917969 176.472656 134.917969 C 175.863281 134.917969 175.332031 134.710938 174.871094 134.304688 C 174.414063 133.898438 174.179688 133.320313 174.179688 132.558594 C 174.179688 131.351563 174.753906 130.191406 175.90625 129.0625 Z M 178.691406 130.160156 C 179.378906 129.582031 179.730469 129.007813 179.730469 128.4375 C 179.730469 128.230469 179.675781 128.070313 179.570313 127.945313 C 179.46875 127.828125 179.316406 127.765625 179.117188 127.765625 C 178.738281 127.765625 178.378906 127.914063 178.019531 128.21875 C 177.660156 128.515625 177.335938 128.855469 177.046875 129.234375 C 176.742188 129.679688 176.5 130.105469 176.324219 130.507813 C 176.226563 130.730469 176.125 130.976563 176.015625 131.25 C 177.109375 131.101563 178.007813 130.738281 178.691406 130.160156 "/>
</g>
</svg>
